<svg width="28" height="28" viewBox="0 0 28 28" fill="none" xmlns="http://www.w3.org/2000/svg">
<path fill-rule="evenodd" clip-rule="evenodd" d="M13.3511 18.5563C13.0857 18.5886 12.8188 18.6046 12.5517 18.6042H8.4V22.25C8.4 22.25 7.8358 22.1277 7 21.7827C4.6102 20.798 0 17.9975 0 11.0525C0 6.8825 3.1556 3.5 7.049 3.5H12.551C15.9474 3.5 18.7831 6.074 19.4509 9.5H22.3615C23.857 9.5002 25.2912 10.1369 26.3486 11.2699C27.406 12.403 28 13.9397 28 15.542C28 21.0012 23.9204 23.2595 21.7 24.0837C20.8705 24.392 20.3 24.5 20.3 24.5V21.5833H18.2392C17.2479 21.5839 16.274 21.3044 15.4158 20.773C14.5576 20.2415 13.8454 19.4769 13.3511 18.5563ZM7 17.1042V20.1605C6.30259 19.8326 5.63911 19.4274 5.0204 18.9515C3.2074 17.5467 1.4 15.1655 1.4 11.0518C1.40019 9.44666 1.99543 7.90737 3.0548 6.77247C4.11417 5.63757 5.55091 5 7.049 5H12.551C13.9919 5.00002 15.3783 5.58997 16.4266 6.64913C17.4748 7.70829 18.1057 9.15661 18.1902 10.6978C18.1874 10.7643 18.1834 10.8303 18.1783 10.8958C18.1052 11.899 17.8454 12.8764 17.4142 13.7703C16.983 14.6643 16.389 15.4567 15.6674 16.1008C14.7439 16.757 13.6599 17.1061 12.5517 17.1042H7ZM16.5025 17.3068C16.0209 17.7302 15.4969 18.0949 14.9401 18.3942C15.3373 18.922 15.8398 19.3476 16.4108 19.6399C16.9817 19.9322 17.6065 20.0837 18.2392 20.0833H21.7V22.484C22.2925 22.2337 22.8626 21.9262 23.4031 21.5653C25.06 20.444 26.6 18.623 26.6 15.542C26.6 14.3375 26.1535 13.1824 25.3586 12.3306C24.5638 11.4788 23.4857 11.0002 22.3615 11H19.6V11.0525C19.6 13.6542 18.3715 15.9485 16.5025 17.3068Z" fill="#111111" style="fill:#111111;fill:color(display-p3 0.0667 0.0667 0.0667);fill-opacity:1;"/>
</svg>
