<svg width="28" height="28" viewBox="0 0 28 28" fill="none" xmlns="http://www.w3.org/2000/svg">
<path d="M18.6667 25.6666C16.4663 25.6666 15.3673 25.6666 14.6837 24.983C14 24.2993 14 23.2003 14 21V6.99998C14 4.79965 14 3.70065 14.6837 3.01698C15.3673 2.33331 16.4663 2.33331 18.6667 2.33331H21C23.2003 2.33331 24.2993 2.33331 24.983 3.01698C25.6667 3.70065 25.6667 4.79965 25.6667 6.99998V21C25.6667 23.2003 25.6667 24.2993 24.983 24.983C24.2993 25.6666 23.2003 25.6666 21 25.6666H18.6667Z" stroke="#111111" style="stroke:#111111;stroke:color(display-p3 0.0667 0.0667 0.0667);stroke-opacity:1;" stroke-width="1.5"/>
<path d="M14 14H16.3333M14 7H16.3333M14 21H16.3333M14 17.5H17.5M14 10.5H17.5" stroke="#111111" style="stroke:#111111;stroke:color(display-p3 0.0667 0.0667 0.0667);stroke-opacity:1;" stroke-width="1.5" stroke-linecap="round"/>
<path d="M2.33333 6.76665V5.65831C2.33333 3.82198 3.90016 2.33331 5.83333 2.33331C7.76649 2.33331 9.33333 3.82198 9.33333 5.65831V6.76665M2.33333 6.76665C2.33333 6.76665 3.64583 7.87498 5.83333 7.87498C8.02083 7.87498 9.33333 6.76665 9.33333 6.76665M2.33333 6.76665V18.123C2.33333 18.8125 2.33333 19.1578 2.37766 19.4961C2.42977 19.8975 2.527 20.2883 2.66933 20.6686C2.78833 20.9895 2.95049 21.2986 3.27599 21.9158L4.65266 24.5315M9.33333 6.76665V18.123C9.33333 18.8125 9.33333 19.1578 9.28899 19.4961C9.23766 19.8975 9.14044 20.2883 8.99733 20.6686C8.87833 20.9895 8.71616 21.2986 8.39066 21.9158L7.01399 24.5315M4.65266 24.5315L4.98866 25.1708C5.07072 25.3227 5.19283 25.4493 5.34174 25.5367C5.49066 25.6241 5.66067 25.6691 5.83333 25.6666C6.00598 25.6691 6.176 25.6241 6.32491 25.5367C6.47382 25.4493 6.59594 25.3227 6.67799 25.1708L7.01399 24.5315M4.65266 24.5315H7.01399" stroke="#111111" style="stroke:#111111;stroke:color(display-p3 0.0667 0.0667 0.0667);stroke-opacity:1;" stroke-width="1.5"/>
</svg>
