<svg width="28" height="28" viewBox="0 0 28 28" fill="none" xmlns="http://www.w3.org/2000/svg">
<path d="M5.83334 8.94487C5.83334 8.22154 5.83334 7.85987 5.91268 7.56237C6.0187 7.16682 6.22696 6.80614 6.51654 6.51657C6.80611 6.22699 7.16679 6.01873 7.56234 5.91271C7.85984 5.83337 8.22151 5.83337 8.94484 5.83337H19.0552C19.7785 5.83337 20.1402 5.83337 20.4377 5.91271C20.8332 6.01873 21.1939 6.22699 21.4835 6.51657C21.7731 6.80614 21.9813 7.16682 22.0873 7.56237C22.1667 7.85987 22.1667 8.22154 22.1667 8.94487C22.1667 10.3915 22.1667 11.1149 22.008 11.7075C21.796 12.499 21.3794 13.2207 20.8 13.8001C20.2207 14.3794 19.499 14.7961 18.7075 15.008C18.1148 15.1667 17.3915 15.1667 15.9448 15.1667H12.0552C10.6085 15.1667 9.88518 15.1667 9.29251 15.008C8.50105 14.7961 7.77935 14.3794 7.19997 13.8001C6.6206 13.2207 6.20398 12.499 5.99201 11.7075C5.83334 11.1149 5.83334 10.3915 5.83334 8.94487Z" stroke="#111111" style="stroke:#111111;stroke:color(display-p3 0.0667 0.0667 0.0667);stroke-opacity:1;" stroke-width="1.5"/>
<path d="M21 12.8334C21.434 13.5147 21.6498 13.8554 21.8038 14.2217C21.9407 14.5492 22.0391 14.8875 22.099 15.2367C22.1667 15.6287 22.1667 16.0324 22.1667 16.8397V18.6667C22.1667 21.966 22.1667 23.6169 21.1412 24.6412C20.1168 25.6667 18.466 25.6667 15.1667 25.6667H12.8333C9.53401 25.6667 7.88317 25.6667 6.85884 24.6412C5.83334 23.6169 5.83334 21.966 5.83334 18.6667V16.8397C5.83334 16.0324 5.83334 15.6287 5.90101 15.2367C5.96064 14.8883 6.05966 14.5478 6.19617 14.2217C6.35017 13.8554 6.56601 13.5147 7.00001 12.8334M5.83334 23.3334C5.04467 23.3334 4.64917 23.3334 4.31901 23.2424C3.96769 23.1481 3.64234 22.9753 3.3675 22.7371C3.09266 22.4988 2.87548 22.2013 2.73234 21.8669C2.60401 21.5624 2.56551 21.1855 2.48734 20.4342L2.41151 19.7155C2.32167 18.8557 2.27617 18.4264 2.46051 18.1079C2.87117 17.3962 3.79284 17.5059 4.49984 17.5059H5.83334M22.1667 23.3334C22.9565 23.3334 23.3508 23.3334 23.681 23.2424C24.0324 23.148 24.3579 22.975 24.6327 22.7366C24.9076 22.4981 25.1247 22.2003 25.2677 21.8657C25.396 21.56 25.4345 21.1832 25.5127 20.4307L25.5885 19.7109C25.662 19.0132 25.8452 18.1569 25.1662 17.7065C24.8535 17.5 24.402 17.5 23.5002 17.5H22.1667" stroke="#111111" style="stroke:#111111;stroke:color(display-p3 0.0667 0.0667 0.0667);stroke-opacity:1;" stroke-width="1.5"/>
<path d="M10.5 16.9167V15.75M17.5 16.9167V15.75" stroke="#111111" style="stroke:#111111;stroke:color(display-p3 0.0667 0.0667 0.0667);stroke-opacity:1;" stroke-width="1.5" stroke-linecap="round" stroke-linejoin="round"/>
<path d="M17.5 5.83337C17.5 4.90512 17.1313 4.01488 16.4749 3.3585C15.8185 2.70212 14.9283 2.33337 14 2.33337C13.0717 2.33337 12.1815 2.70212 11.5251 3.3585C10.8688 4.01488 10.5 4.90512 10.5 5.83337" stroke="#111111" style="stroke:#111111;stroke:color(display-p3 0.0667 0.0667 0.0667);stroke-opacity:1;" stroke-width="1.5"/>
</svg>
