<svg width="44" height="38" viewBox="0 0 44 38" fill="none" xmlns="http://www.w3.org/2000/svg">
<path d="M8.80003 14.9979C8.80003 8.81106 14.7125 3.7998 22 3.7998C29.2875 3.7998 35.2 8.81106 35.2 14.9979C35.2 22.0814 26.9363 30.572 23.485 33.8079C22.6738 34.5679 21.3194 34.5679 20.5082 33.8079C17.0569 30.572 8.79315 22.0814 8.79315 14.9979H8.80003ZM22 18.9998C24.4269 18.9998 26.4 17.2957 26.4 15.1998C26.4 13.1039 24.4269 11.3998 22 11.3998C19.5732 11.3998 17.6 13.1039 17.6 15.1998C17.6 17.2957 19.5732 18.9998 22 18.9998Z" fill="#434343" style="fill:#434343;fill:color(display-p3 0.2611 0.2611 0.2611);fill-opacity:1;"/>
</svg>
