<svg width="28" height="28" viewBox="0 0 28 28" fill="none" xmlns="http://www.w3.org/2000/svg">
<path d="M4.42814 25.788C3.83098 25.788 3.33277 25.5847 2.93351 25.1781C2.53425 24.7715 2.33419 24.2642 2.33333 23.6561V9.4389C2.33333 8.83167 2.53339 8.32476 2.93351 7.91817C3.33364 7.51159 3.83141 7.30786 4.42685 7.30698H9.96203L13.2676 3.9408C13.4767 3.72782 13.7209 3.62134 14 3.62134C14.2791 3.62134 14.5237 3.72782 14.7337 3.9408L18.0393 7.30698H23.5731C24.1694 7.30698 24.6676 7.51071 25.0678 7.91817C25.4679 8.32564 25.6675 8.83299 25.6667 9.44022V23.6561C25.6667 24.2633 25.467 24.7707 25.0678 25.1781C24.6685 25.5856 24.1703 25.7889 23.5731 25.788H4.42814ZM4.42814 24.4679H23.5731C23.7719 24.4679 23.9547 24.3834 24.1215 24.2145C24.2883 24.0455 24.3712 23.8589 24.3704 23.6548V9.44022C24.3704 9.23693 24.2874 9.05036 24.1215 8.88051C23.9556 8.71066 23.7728 8.62617 23.5731 8.62705H4.42685C4.22808 8.62705 4.0453 8.71154 3.87851 8.88051C3.71172 9.04948 3.62876 9.23605 3.62962 9.44022V23.6561C3.62962 23.8585 3.71259 24.0446 3.87851 24.2145C4.04444 24.3843 4.22722 24.4688 4.42685 24.4679M12.9785 20.5592L11.1287 18.2821C11.0155 18.1562 10.8798 18.0933 10.7217 18.0933C10.5644 18.0933 10.4291 18.1646 10.3159 18.3071L8.81999 20.3137C8.67999 20.5011 8.65839 20.6903 8.75518 20.8813C8.85197 21.0723 9.00493 21.1677 9.21407 21.1677H18.9855C19.1955 21.1677 19.3485 21.0723 19.4444 20.8813C19.5404 20.6903 19.5274 20.5011 19.4055 20.3137L16.787 16.7323C16.6747 16.5906 16.5351 16.5198 16.3683 16.5198C16.2024 16.5198 16.0628 16.5911 15.9496 16.7336L12.9785 20.5592ZM21.4096 14.8024C21.6888 14.519 21.8283 14.17 21.8283 13.7555C21.8283 13.341 21.6888 12.9917 21.4096 12.7074C21.1305 12.4231 20.7878 12.2815 20.3817 12.2823C19.9755 12.2832 19.6328 12.4249 19.3537 12.7074C19.0746 12.9899 18.9354 13.3393 18.9363 13.7555C18.9363 14.1692 19.0754 14.5181 19.3537 14.8024C19.632 15.0857 19.9746 15.2274 20.3817 15.2274C20.7887 15.2274 21.1314 15.0857 21.4096 14.8024ZM11.5863 7.30698H16.4137L14 4.85033L11.5863 7.30698Z" fill="#111111" style="fill:#111111;fill:color(display-p3 0.0667 0.0667 0.0667);fill-opacity:1;"/>
</svg>
