<svg width="28" height="28" viewBox="0 0 28 28" fill="none" xmlns="http://www.w3.org/2000/svg">
<path d="M24.5 16.625V5.25C24.5 4.78587 24.3156 4.34075 23.9874 4.01256C23.6592 3.68437 23.2141 3.5 22.75 3.5H5.24999C4.78586 3.5 4.34075 3.68437 4.01256 4.01256C3.68437 4.34075 3.49999 4.78587 3.49999 5.25V16.625M24.5 16.625H3.49999M24.5 16.625L26.9733 22.0395C27.0917 22.3059 27.1416 22.5976 27.1186 22.8881C27.0956 23.1787 27.0004 23.4589 26.8416 23.7033C26.6828 23.9477 26.4655 24.1486 26.2094 24.2878C25.9533 24.4269 25.6665 24.4998 25.375 24.5H2.62499C2.33343 24.5 2.04647 24.4272 1.7902 24.2882C1.53393 24.1491 1.31645 23.9483 1.15754 23.7038C0.998631 23.4593 0.903315 23.1791 0.880254 22.8884C0.857193 22.5978 0.907118 22.306 1.02549 22.0395L3.49999 16.625M12.25 21H15.75" stroke="#111111" style="stroke:#111111;stroke:color(display-p3 0.0667 0.0667 0.0667);stroke-opacity:1;" stroke-width="1.5" stroke-linecap="round" stroke-linejoin="round"/>
</svg>
