<svg width="118" height="29" viewBox="0 0 118 29" fill="none" xmlns="http://www.w3.org/2000/svg">
<path d="M44.4232 16.6981C45.5222 16.6981 46.4132 15.8058 46.4132 14.7051C46.4132 13.6044 45.5222 12.7122 44.4232 12.7122C43.3241 12.7122 42.4331 13.6044 42.4331 14.7051C42.4331 15.8058 43.3241 16.6981 44.4232 16.6981Z" fill="#575350" style="fill:#575350;fill:color(display-p3 0.3412 0.3255 0.3137);fill-opacity:1;"/>
<path d="M21.9478 25.1288C23.0469 25.1288 23.9379 24.2365 23.9379 23.1358C23.9379 22.0351 23.0469 21.1428 21.9478 21.1428C20.8487 21.1428 19.9578 22.0351 19.9578 23.1358C19.9578 24.2365 20.8487 25.1288 21.9478 25.1288Z" fill="#575350" style="fill:#575350;fill:color(display-p3 0.3412 0.3255 0.3137);fill-opacity:1;"/>
<path d="M64.2855 12.5457C65.3846 12.5457 66.2755 11.6535 66.2755 10.5528C66.2755 9.4521 65.3846 8.55981 64.2855 8.55981C63.1864 8.55981 62.2954 9.4521 62.2954 10.5528C62.2954 11.6535 63.1864 12.5457 64.2855 12.5457Z" fill="#575350" style="fill:#575350;fill:color(display-p3 0.3412 0.3255 0.3137);fill-opacity:1;"/>
<path d="M84.2703 15.6666C85.3694 15.6666 86.2604 14.7743 86.2604 13.6736C86.2604 12.5729 85.3694 11.6807 84.2703 11.6807C83.1713 11.6807 82.2803 12.5729 82.2803 13.6736C82.2803 14.7743 83.1713 15.6666 84.2703 15.6666Z" fill="#575350" style="fill:#575350;fill:color(display-p3 0.3412 0.3255 0.3137);fill-opacity:1;"/>
<path d="M17.3567 1.56494L1.50024 27.046" stroke="#575350" style="stroke:#575350;stroke:color(display-p3 0.3412 0.3255 0.3137);stroke-opacity:1;" stroke-width="3" stroke-miterlimit="10" stroke-linecap="round"/>
<path d="M20.4292 17.3264H11.0876" stroke="#575350" style="stroke:#575350;stroke:color(display-p3 0.3412 0.3255 0.3137);stroke-opacity:1;" stroke-width="2" stroke-miterlimit="10" stroke-linecap="round"/>
<path d="M35.8799 1.56494L30.3491 27.046" stroke="#575350" style="stroke:#575350;stroke:color(display-p3 0.3412 0.3255 0.3137);stroke-opacity:1;" stroke-width="3" stroke-miterlimit="10" stroke-linecap="round"/>
<path d="M39.9038 16.5559L45.4416 27.3586" stroke="#575350" style="stroke:#575350;stroke:color(display-p3 0.3412 0.3255 0.3137);stroke-opacity:1;" stroke-width="2" stroke-miterlimit="10" stroke-linecap="round"/>
<path d="M39.3215 1.565C39.3215 1.565 43.2228 1.28911 44.484 1.565C45.7451 1.84089 47.434 2.91944 47.434 5.75023C47.434 8.58102 43.3774 9.88544 43.3774 9.88544" stroke="#575350" style="stroke:#575350;stroke:color(display-p3 0.3412 0.3255 0.3137);stroke-opacity:1;" stroke-width="2" stroke-miterlimit="10" stroke-linecap="round"/>
<path d="M56.5796 1.56494H72.4673" stroke="#575350" style="stroke:#575350;stroke:color(display-p3 0.3412 0.3255 0.3137);stroke-opacity:1;" stroke-width="3" stroke-miterlimit="10" stroke-linecap="round"/>
<path d="M59.6046 27.3587L62.5787 14.8475L58.9802 11.6807" stroke="#575350" style="stroke:#575350;stroke:color(display-p3 0.3412 0.3255 0.3137);stroke-opacity:1;" stroke-width="2" stroke-linecap="round" stroke-linejoin="round"/>
<path d="M100.934 14.2183H112.934" stroke="#575350" style="stroke:#575350;stroke:color(display-p3 0.3412 0.3255 0.3137);stroke-opacity:1;" stroke-width="2" stroke-linecap="round" stroke-linejoin="round"/>
<path d="M106.924 8.21826V22.2183" stroke="#575350" style="stroke:#575350;stroke:color(display-p3 0.3412 0.3255 0.3137);stroke-opacity:1;" stroke-width="2" stroke-linecap="round" stroke-linejoin="round"/>
<path d="M91.7709 2.39808C91.7709 2.39808 88.1716 0.480926 85.071 1.13665C81.9704 1.79238 79.0649 4.69351 79.0649 7.28983C79.0649 9.88616 80.7015 10.5864 80.7015 10.5864" stroke="#575350" style="stroke:#575350;stroke:color(display-p3 0.3412 0.3255 0.3137);stroke-opacity:1;" stroke-width="2" stroke-linecap="round" stroke-linejoin="round"/>
<path d="M87.3992 17.3264C87.3992 17.3264 87.9197 18.0947 88.0906 20.1564C88.2615 22.2182 86.5712 25.1764 84.905 26.1111C83.2388 27.0458 81.6288 27.4225 79.3835 27.4225C77.1383 27.4225 74.7471 25.9696 74.7471 25.9696" stroke="#575350" style="stroke:#575350;stroke:color(display-p3 0.3412 0.3255 0.3137);stroke-opacity:1;" stroke-width="2" stroke-linecap="round" stroke-linejoin="round"/>
</svg>
