<?xml version="1.0" encoding="UTF-8"?>
<svg id="_圖層_1" data-name="圖層 1" xmlns="http://www.w3.org/2000/svg" viewBox="0 0 72 72">
  <defs>
    <style>
      .cls-1 {
        fill: #ffdd1d;
        stroke: #000;
        stroke-linecap: round;
        stroke-linejoin: round;
        stroke-width: 2px;
      }
    </style>
  </defs>
  <path class="cls-1" d="M27.94,46.93l9.24-1.77,5.44-2.38-4.92-24.81-9.32,24.81-8.83,16.65,10.25,1.54v6.5H13.06l-3.78-3.51s5.32-11.33,9.15-23.42,6.96-27.69,6.96-27.69l5.89-7.15h12.08l4.23,11.7,13.15,28.23-4.35,4.73-16.96.19-11.65.58"/>
  <ellipse class="cls-1" cx="51.61" cy="60.26" rx="11.27" ry="7.22"/>
  <ellipse cx="45.58" cy="60.55" rx=".92" ry="1.86"/>
  <ellipse cx="47.97" cy="60.55" rx=".92" ry="1.86"/>
  <polyline class="cls-1" points="30.2 50.27 29.03 52.71 27.28 53.05 26.8 51.01 20.58 51.01 21.38 45.17 30.2 45.17 30.09 48.43"/>
  <line class="cls-1" x1="42.62" y1="42.78" x2="47.97" y2="39.15"/>
  <line class="cls-1" x1="40.34" y1="50.54" x2="39.64" y2="48.39"/>
  <line class="cls-1" x1="26.29" y1="39.04" x2="25.39" y2="40.32"/>
  <line class="cls-1" x1="19.56" y1="59.43" x2="16.68" y2="60.5"/>
</svg>